[h264 @ 0x55b700184180] Reinit context to 1280x720, pix_fmt: yuv420p
Input #0, mov,mp4,m4a,3gp,3g2,mj2, from '/var/www/html/project/media/video/original/Sarsina_Tempio_Romano.mp4':
  Metadata:
    major_brand     : isom
    minor_version   : 512
    compatible_brands: isomiso2avc1mp41
    encoder         : https://clipchamp.com
    comment         : Create videos with https://clipchamp.com/en/video-editor - free online video editor, video compressor, video converter.
  Duration: 00:02:12.58, start: 0.000000, bitrate: 9153 kb/s
    Stream #0:0(und): Video: h264 (Constrained Baseline), 1 reference frame (avc1 / 0x31637661), yuv420p(left), 1280x720 [SAR 1:1 DAR 16:9], 8956 kb/s, 30 fps, 30 tbr, 15360 tbn, 60 tbc (default)
    Metadata:
      handler_name    : VideoHandler
    Stream #0:1(und): Audio: aac (LC) (mp4a / 0x6134706D), 44100 Hz, stereo, fltp, 192 kb/s (default)
    Metadata:
      handler_name    : SoundHandler
Input #1, png_pipe, from '/var/www/html/project/static/images/templates/logo.png':
  Duration: N/A, bitrate: N/A
    Stream #1:0: Video: png, 1 reference frame, rgba(pc), 1920x1080 [SAR 2835:2835 DAR 16:9], 25 tbr, 25 tbn, 25 tbc
[h264 @ 0x55b7001d9200] Reinit context to 1280x720, pix_fmt: yuv420p
Input #2, mov,mp4,m4a,3gp,3g2,mj2, from '/var/www/html/project/static/images/templates/Codino.mp4':
  Metadata:
    major_brand     : mp42
    minor_version   : 1
    compatible_brands: isommp41mp42
    creation_time   : 2021-07-11T07:02:58.000000Z
  Duration: 00:00:02.00, start: 0.000000, bitrate: 1007 kb/s
    Stream #2:0(ita): Audio: aac (LC) (mp4a / 0x6134706D), 44100 Hz, stereo, fltp, 102 kb/s (default)
    Metadata:
      creation_time   : 2021-07-11T07:02:58.000000Z
      handler_name    : Core Media Audio
    Stream #2:1(und): Video: h264 (High), 1 reference frame (avc1 / 0x31637661), yuv420p(tv, bt709, progressive, left), 1280x720 [SAR 1:1 DAR 16:9], 813 kb/s, 25 fps, 25 tbr, 25k tbn, 50k tbc (default)
    Metadata:
      creation_time   : 2021-07-11T07:02:58.000000Z
      handler_name    : Core Media Video
[Parsed_scale_0 @ 0x55b7001d5f80] w:1280 h:720 flags:'bilinear' interl:0
[Parsed_scale_2 @ 0x55b7001c7700] w:1280 h:720 flags:'bilinear' interl:0
[Parsed_scale_4 @ 0x55b7001c9080] w:1280 h:720 flags:'bilinear' interl:0
Stream mapping:
  Stream #0:0 (h264) -> scale
  Stream #0:1 (aac) -> concat:in0:a0
  Stream #1:0 (png) -> scale
  Stream #2:0 (aac) -> concat:in1:a0
  Stream #2:1 (h264) -> scale
  concat:out:v0 -> Stream #0:0 (libx264)
  concat:out:a0 -> Stream #0:1 (aac)
Press [q] to stop, [?] for help
[h264 @ 0x55b7001c2200] Reinit context to 1280x720, pix_fmt: yuv420p
[h264 @ 0x55b700592180] Reinit context to 1280x720, pix_fmt: yuv420p
[Parsed_scale_0 @ 0x55b70142f880] w:1280 h:720 flags:'bilinear' interl:0
[Parsed_scale_2 @ 0x55b70142fa00] w:1280 h:720 flags:'bilinear' interl:0
[Parsed_scale_4 @ 0x55b701439380] w:1280 h:720 flags:'bilinear' interl:0
[graph 0 input from stream 0:0 @ 0x55b70143dac0] w:1280 h:720 pixfmt:yuv420p tb:1/15360 fr:30/1 sar:1/1 sws_param:flags=2
[graph 0 input from stream 1:0 @ 0x55b70143eb40] w:1920 h:1080 pixfmt:rgba tb:1/25 fr:25/1 sar:2835/2835 sws_param:flags=2
[graph 0 input from stream 2:1 @ 0x55b70143fbc0] w:1280 h:720 pixfmt:yuv420p tb:1/25000 fr:25/1 sar:1/1 sws_param:flags=2
[graph_0_in_0_1 @ 0x55b701440b80] tb:1/44100 samplefmt:fltp samplerate:44100 chlayout:0x3
[graph_0_in_2_0 @ 0x55b701441cc0] tb:1/44100 samplefmt:fltp samplerate:44100 chlayout:0x3
[Parsed_scale_0 @ 0x55b70142f880] w:1280 h:720 fmt:yuv420p sar:1/1 -> w:1280 h:720 fmt:yuv420p sar:1/1 flags:0x2
[Parsed_setsar_1 @ 0x55b70142fd00] w:1280 h:720 sar:1/1 dar:16/9 -> sar:1/1 dar:16/9
[Parsed_scale_2 @ 0x55b70142fa00] w:1920 h:1080 fmt:rgba sar:2835/2835 -> w:1280 h:720 fmt:yuva420p sar:1/1 flags:0x2
[Parsed_setsar_3 @ 0x55b701438840] w:1280 h:720 sar:1/1 dar:16/9 -> sar:1/1 dar:16/9
[Parsed_overlay_6 @ 0x55b70143aa00] main w:1280 h:720 fmt:yuv420p overlay w:1280 h:720 fmt:yuva420p
[Parsed_overlay_6 @ 0x55b70143aa00] [framesync @ 0x55b70143ab28] Selected 1/76800 time base
[Parsed_overlay_6 @ 0x55b70143aa00] [framesync @ 0x55b70143ab28] Sync level 2
[Parsed_scale_4 @ 0x55b701439380] w:1280 h:720 fmt:yuv420p sar:1/1 -> w:1280 h:720 fmt:yuv420p sar:1/1 flags:0x2
[Parsed_setsar_5 @ 0x55b701439e40] w:1280 h:720 sar:1/1 dar:16/9 -> sar:1/1 dar:16/9
[libx264 @ 0x55b7001d7100] using SAR=1/1
[libx264 @ 0x55b7001d7100] using cpu capabilities: MMX2 SSE2Fast SSSE3 SSE4.2 AVX FMA3 BMI2 AVX2
[libx264 @ 0x55b7001d7100] profile High, level 3.1
[libx264 @ 0x55b7001d7100] 264 - core 155 r2917 0a84d98 - H.264/MPEG-4 AVC codec - Copyleft 2003-2018 - http://www.videolan.org/x264.html - options: cabac=1 ref=1 deblock=1:0:0 analyse=0x3:0x113 me=hex subme=2 psy=1 psy_rd=1.00:0.00 mixed_ref=0 me_range=16 chroma_me=1 trellis=0 8x8dct=1 cqm=0 deadzone=21,11 fast_pskip=1 chroma_qp_offset=0 threads=22 lookahead_threads=5 sliced_threads=0 nr=0 decimate=1 interlaced=0 bluray_compat=0 constrained_intra=0 bframes=3 b_pyramid=2 b_adapt=1 b_bias=0 direct=1 weightb=1 open_gop=0 weightp=1 keyint=250 keyint_min=25 scenecut=40 intra_refresh=0 rc_lookahead=10 rc=crf mbtree=1 crf=18.0 qcomp=0.60 qpmin=0 qpmax=69 qpstep=4 ip_ratio=1.40 aq=1:1.00
Output #0, mp4, to '/var/www/html/project/media/video/watermarks/Sarsina_Tempio_Romano.mp4':
  Metadata:
    major_brand     : isom
    minor_version   : 512
    compatible_brands: isomiso2avc1mp41
    comment         : Create videos with https://clipchamp.com/en/video-editor - free online video editor, video compressor, video converter.
    encoder         : Lavf58.29.100
    Stream #0:0: Video: h264 (libx264), 1 reference frame (avc1 / 0x31637661), yuv420p(progressive), 1280x720 [SAR 1:1 DAR 16:9], q=-1--1, 30 fps, 15360 tbn, 30 tbc (default)
    Metadata:
      encoder         : Lavc58.54.100 libx264
    Side data:
      cpb: bitrate max/min/avg: 0/0/0 buffer size: 0 vbv_delay: -1
    Stream #0:1: Audio: aac (LC) (mp4a / 0x6134706D), 44100 Hz, stereo, fltp, delay 1024, 128 kb/s (default)
    Metadata:
      encoder         : Lavc58.54.100 aac
[Parsed_overlay_6 @ 0x55b70143aa00] [framesync @ 0x55b70143ab28] Sync level 0
[Parsed_concat_7 @ 0x55b70143bb40] EOF on in0:v0, 1 streams left in segment.
[Parsed_concat_7 @ 0x55b70143bb40] EOF on in0:a0, 0 streams left in segment.
[Parsed_concat_7 @ 0x55b70143bb40] Segment finished at pts=132566666
[Parsed_concat_7 @ 0x55b70143bb40] EOF on in1:a0, 1 streams left in segment.
[Parsed_concat_7 @ 0x55b70143bb40] EOF on in1:v0, 0 streams left in segment.
[Parsed_concat_7 @ 0x55b70143bb40] Segment finished at pts=134585351
No more output streams to write to, finishing.
frame= 4027 fps= 83 q=-1.0 Lsize=  142429kB time=00:02:14.60 bitrate=8668.1kbits/s speed=2.78x    
[AVIOContext @ 0x55b700182440] Statistics: 0 seeks, 95 writeouts
video:140184kB audio:2104kB subtitle:0kB other streams:0kB global headers:0kB muxing overhead: 0.099125%
Input file #0 (/var/www/html/project/media/video/original/Sarsina_Tempio_Romano.mp4):
  Input stream #0:0 (video): 3977 packets read (148411055 bytes); 3977 frames decoded; 
  Input stream #0:1 (audio): 5710 packets read (3182306 bytes); 5709 frames decoded (5846016 samples); 
  Total: 9687 packets (151593361 bytes) demuxed
Input file #1 (/var/www/html/project/static/images/templates/logo.png):
  Input stream #1:0 (video): 1 packets read (111578 bytes); 1 frames decoded; 
  Total: 1 packets (111578 bytes) demuxed
Input file #2 (/var/www/html/project/static/images/templates/Codino.mp4):
  Input stream #2:0 (audio): 89 packets read (26579 bytes); 87 frames decoded (89024 samples); 
  Input stream #2:1 (video): 50 packets read (203365 bytes); 50 frames decoded; 
  Total: 139 packets (229944 bytes) demuxed
Output file #0 (/var/www/html/project/media/video/watermarks/Sarsina_Tempio_Romano.mp4):
  Output stream #0:0 (video): 4027 frames encoded; 4027 packets muxed (143548835 bytes); 
  Output stream #0:1 (audio): 5797 frames encoded (5935214 samples); 5798 packets muxed (2154007 bytes); 
  Total: 9825 packets (145702842 bytes) muxed
[AVIOContext @ 0x55b7001bd9c0] Statistics: 2 seeks, 559 writeouts
[libx264 @ 0x55b7001d7100] frame I:23    Avg QP:17.90  size:184380
[libx264 @ 0x55b7001d7100] frame P:1392  Avg QP:20.50  size: 60657
[libx264 @ 0x55b7001d7100] frame B:2612  Avg QP:24.52  size: 21008
[libx264 @ 0x55b7001d7100] consecutive B-frames: 10.5%  7.0%  6.5% 76.1%
[libx264 @ 0x55b7001d7100] mb I  I16..4:  4.0%  5.3% 90.7%
[libx264 @ 0x55b7001d7100] mb P  I16..4:  1.2%  2.0%  3.3%  P16..4: 41.2% 19.2% 20.1%  0.0%  0.0%    skip:13.1%
[libx264 @ 0x55b7001d7100] mb B  I16..4:  0.3%  0.2%  0.2%  B16..8: 28.0% 15.0%  4.9%  direct:17.6%  skip:33.8%  L0:34.3% L1:31.4% BI:34.3%
[libx264 @ 0x55b7001d7100] 8x8 transform intra:25.3% inter:22.2%
[libx264 @ 0x55b7001d7100] coded y,uvDC,uvAC intra: 77.4% 63.4% 25.0% inter: 38.5% 11.0% 0.7%
[libx264 @ 0x55b7001d7100] i16 v,h,dc,p: 37% 42% 18%  4%
[libx264 @ 0x55b7001d7100] i8 v,h,dc,ddl,ddr,vr,hd,vl,hu: 19% 44% 16%  2%  3%  3%  5%  3%  5%
[libx264 @ 0x55b7001d7100] i4 v,h,dc,ddl,ddr,vr,hd,vl,hu: 18% 35% 11%  4%  6%  5%  8%  4%  8%
[libx264 @ 0x55b7001d7100] i8c dc,h,v,p: 45% 33% 15%  7%
[libx264 @ 0x55b7001d7100] Weighted P-Frames: Y:2.5% UV:0.1%
[libx264 @ 0x55b7001d7100] kb/s:8533.95
[aac @ 0x55b700322140] Qavg: 707.955
[AVIOContext @ 0x55b70018b3c0] Statistics: 151761354 bytes read, 2 seeks
[AVIOContext @ 0x55b70018b000] Statistics: 111578 bytes read, 0 seeks
[AVIOContext @ 0x55b70020df40] Statistics: 1530915 bytes read, 42 seeks
